<?xml version="1.0" standalone="no"?>
<!DOCTYPE svg PUBLIC "-//W3C//DTD SVG 20010904//EN"
 "http://www.w3.org/TR/2001/REC-SVG-20010904/DTD/svg10.dtd">
<svg version="1.0" xmlns="http://www.w3.org/2000/svg"
 width="600.000000pt" height="600.000000pt" viewBox="0 0 600.000000 600.000000"
 preserveAspectRatio="xMidYMid meet">
<metadata>
Created by potrace 1.11, written by Peter Selinger 2001-2013
</metadata>
<g transform="translate(0.000000,600.000000) scale(0.100000,-0.100000)"
fill="#000000" stroke="none">
<path d="M2795 5314 c-267 -38 -498 -109 -707 -216 -75 -38 -161 -87 -190
-109 -139 -101 -189 -140 -275 -211 l-92 -78 -38 17 c-51 22 -171 21 -253 -2
-149 -41 -304 -151 -411 -292 -24 -32 -46 -60 -49 -63 -3 -3 -54 -77 -113
-166 -59 -88 -148 -210 -198 -270 -234 -283 -367 -552 -436 -884 -33 -158 -37
-380 -9 -530 86 -453 360 -785 743 -899 130 -39 447 -45 636 -13 34 6 56 2
121 -25 44 -17 112 -37 150 -43 89 -14 118 -25 147 -56 l22 -24 -77 -36 c-81
-37 -167 -67 -301 -104 -98 -27 -131 -50 -146 -98 -13 -46 -2 -79 64 -179 90
-138 248 -279 367 -328 86 -35 506 -32 740 6 494 80 887 259 1182 537 69 66
196 225 219 275 16 36 24 34 42 -12 41 -101 146 -117 250 -37 35 27 59 35 144
49 56 9 136 30 179 47 76 29 80 30 168 19 121 -14 374 -14 461 1 190 31 360
120 506 263 319 314 432 811 298 1307 -76 279 -201 513 -409 765 -50 60 -134
175 -188 255 -140 209 -202 289 -286 367 -83 77 -198 143 -296 169 -84 22
-203 22 -254 1 -49 -22 -46 -22 -82 11 -207 188 -350 291 -536 383 -169 84
-358 145 -568 185 -82 15 -454 28 -525 18z m440 -239 c61 -8 130 -20 155 -26
100 -25 289 -92 352 -125 37 -19 74 -34 83 -34 8 0 15 -4 15 -9 0 -5 15 -14
33 -22 17 -7 34 -16 37 -19 3 -4 28 -22 55 -40 328 -222 575 -502 765 -865 45
-86 120 -293 120 -332 0 -12 5 -23 11 -23 5 0 8 -4 5 -9 -3 -4 2 -35 11 -67
12 -44 16 -109 17 -259 0 -110 -2 -211 -6 -225 -7 -26 -8 -25 -71 35 -302 289
-754 337 -1104 119 -153 -95 -283 -248 -354 -415 -17 -40 -33 -76 -35 -78 -2
-3 -17 7 -32 21 -49 45 -93 70 -154 89 -137 43 -282 10 -390 -89 -15 -14 -30
-24 -32 -21 -2 2 -18 38 -35 78 -222 524 -856 711 -1337 395 -32 -21 -94 -74
-137 -117 -43 -43 -81 -77 -83 -74 -11 11 -23 258 -17 362 9 189 74 436 171
649 77 172 221 367 394 533 42 40 73 75 69 79 -3 3 -1 4 6 2 6 -2 34 18 61 45
28 26 53 47 57 47 9 0 129 92 133 102 2 4 10 8 18 8 8 0 14 5 14 10 0 6 6 10
13 10 7 0 22 8 33 18 10 10 34 24 52 31 17 7 32 17 32 21 0 4 13 10 29 13 16
3 36 13 44 22 9 8 22 15 29 15 7 0 22 6 33 14 11 7 45 21 75 31 30 9 69 23 85
30 49 21 234 64 315 74 121 14 346 12 465 -4z m-1905 -590 c0 -8 -16 -30 -35
-49 -19 -20 -35 -40 -35 -45 0 -5 -4 -11 -8 -13 -12 -4 -132 -196 -132 -209 0
-6 -9 -22 -20 -36 -11 -14 -20 -31 -20 -39 0 -7 -11 -35 -25 -62 -14 -28 -25
-57 -25 -65 0 -9 -4 -19 -10 -22 -5 -3 -10 -17 -10 -30 0 -13 -4 -27 -10 -30
-11 -7 -50 -133 -50 -164 0 -11 -4 -21 -9 -21 -4 0 -11 -27 -15 -60 -4 -33
-11 -62 -17 -65 -5 -4 -9 -18 -9 -33 1 -15 -4 -49 -11 -77 -7 -30 -12 -127
-12 -240 1 -158 4 -206 22 -285 12 -52 22 -102 22 -110 1 -20 30 -112 39 -125
17 -24 18 -65 3 -139 -45 -227 25 -512 174 -704 l44 -57 -43 -8 c-47 -9 -262
9 -290 24 -10 5 -29 9 -43 9 -14 0 -25 5 -25 10 0 6 -8 10 -17 10 -10 0 -27 7
-37 15 -11 8 -28 15 -38 15 -10 0 -21 7 -24 15 -4 8 -11 15 -17 15 -34 0 -247
214 -247 249 0 6 -5 11 -11 11 -5 0 -19 23 -31 50 -11 27 -25 50 -29 50 -5 0
-9 11 -9 25 0 14 -4 25 -8 25 -5 0 -14 19 -21 43 -7 23 -17 52 -22 65 -5 13
-9 35 -9 50 0 16 -5 33 -12 40 -7 7 -12 73 -14 199 -2 164 0 201 20 293 13 58
28 115 34 127 7 12 12 31 12 42 0 10 6 32 14 48 8 15 34 73 58 128 23 55 48
106 55 113 7 7 13 18 13 24 0 5 16 33 35 62 19 29 35 55 35 58 0 3 16 23 35
44 19 21 35 42 35 46 0 4 16 25 35 45 19 20 37 45 40 55 4 9 15 20 26 23 10 4
19 13 19 21 0 8 9 23 19 33 11 11 36 44 56 73 19 29 42 62 51 73 9 11 40 58
70 105 30 47 59 87 65 88 5 2 9 10 9 18 0 19 196 214 215 214 9 0 18 7 21 15
4 8 16 15 28 15 11 0 28 5 36 10 23 15 60 12 60 -5z m3445 -14 c55 -25 112
-71 197 -158 32 -33 188 -258 188 -271 0 -5 9 -17 20 -27 11 -10 20 -24 20
-31 0 -7 3 -14 8 -16 12 -5 102 -126 102 -137 0 -6 6 -11 13 -11 6 0 23 -18
37 -40 13 -22 28 -40 32 -40 4 0 8 -6 8 -14 0 -7 11 -22 25 -32 14 -10 25 -24
25 -31 0 -7 9 -18 20 -25 11 -7 20 -19 20 -27 0 -8 7 -23 17 -33 21 -23 29
-37 102 -185 34 -67 61 -128 61 -136 0 -7 7 -22 15 -33 8 -10 15 -29 15 -41 0
-12 6 -37 14 -55 16 -36 30 -89 27 -101 -1 -4 5 -33 13 -64 11 -41 14 -99 12
-217 -4 -175 -20 -278 -61 -377 -14 -34 -25 -70 -25 -80 0 -10 -5 -21 -11 -25
-6 -3 -20 -26 -31 -50 -10 -24 -23 -44 -28 -44 -6 0 -10 -7 -10 -15 0 -8 -9
-20 -20 -27 -11 -7 -20 -18 -20 -25 0 -7 -9 -18 -20 -25 -11 -7 -20 -17 -20
-23 0 -13 -111 -115 -126 -115 -6 0 -30 -20 -52 -42 -9 -10 -24 -18 -32 -18
-9 0 -25 -7 -36 -15 -10 -8 -27 -15 -36 -15 -10 0 -18 -4 -18 -9 0 -10 -34
-18 -140 -32 -88 -11 -220 -16 -220 -8 0 3 20 32 45 64 60 76 130 219 157 320
32 119 32 326 -1 449 -21 81 -22 92 -8 115 8 14 17 48 21 75 3 27 10 54 15 60
9 12 14 41 31 206 12 110 6 302 -12 380 -5 25 -11 59 -12 75 -5 57 -66 278
-78 283 -5 2 -8 12 -8 23 0 11 -4 27 -9 37 -5 9 -19 41 -31 71 -12 30 -28 61
-36 68 -8 8 -14 23 -14 34 0 10 -4 19 -9 19 -5 0 -12 11 -15 25 -3 13 -24 53
-46 87 -22 35 -40 69 -40 76 0 6 -4 12 -9 12 -5 0 -12 8 -15 18 -3 9 -19 33
-36 52 -16 19 -30 38 -30 42 0 4 -13 22 -28 40 -16 18 -31 41 -35 51 -10 27
43 22 118 -12z m-2748 -1317 c228 -50 442 -230 528 -442 45 -111 59 -181 59
-302 0 -183 -55 -342 -167 -480 -49 -60 -161 -160 -179 -160 -4 0 -11 19 -14
41 -4 23 -16 51 -28 64 -22 23 -116 65 -147 65 -9 0 -19 3 -21 8 -4 9 -144 72
-175 79 -13 3 -23 9 -23 13 0 5 -12 13 -27 19 -16 6 -55 29 -88 51 -33 22 -67
43 -75 47 -8 4 -19 12 -25 18 -5 6 -42 37 -81 68 -61 48 -194 182 -194 194 0
6 -52 76 -65 88 -6 6 -38 63 -70 128 l-59 117 19 33 c114 196 334 339 565 367
78 9 182 3 267 -16z m2358 -5 c148 -37 305 -139 399 -259 43 -54 47 -65 42
-95 -10 -50 -98 -222 -151 -294 -25 -33 -45 -63 -45 -66 0 -12 -191 -195 -240
-230 -30 -22 -62 -46 -70 -55 -8 -9 -30 -22 -47 -29 -19 -8 -30 -18 -26 -25 3
-6 3 -8 -2 -4 -4 4 -22 -1 -39 -11 -58 -36 -191 -98 -290 -138 -105 -41 -138
-69 -138 -117 0 -49 -22 -50 -80 -3 -115 94 -205 235 -250 392 -29 103 -31
277 -4 375 52 189 149 334 292 436 197 140 413 181 649 123z m-1266 -496 c24
-9 61 -31 81 -49 55 -50 78 -112 90 -249 6 -65 23 -156 36 -204 52 -179 181
-362 331 -468 l42 -30 -20 -32 c-60 -98 -151 -199 -257 -283 -43 -33 -78 -64
-80 -69 -2 -5 -8 -9 -13 -9 -5 0 -32 -15 -61 -34 -88 -55 -256 -137 -370 -177
-281 -101 -567 -144 -899 -137 -151 3 -166 5 -196 26 -17 12 -34 22 -38 22 -7
0 -9 1 -89 79 -31 30 -56 59 -56 65 0 6 35 22 78 35 42 14 88 30 102 37 14 7
53 25 88 40 34 15 62 30 62 33 0 4 15 13 34 19 30 11 156 124 194 175 17 23
62 119 62 134 0 6 39 37 87 68 147 96 264 227 342 382 36 73 69 207 81 329 15
167 51 238 143 286 75 38 141 41 226 11z m1828 -285 c-7 -178 -54 -300 -169
-445 -82 -104 -122 -120 -213 -88 -22 8 -47 15 -56 15 -24 0 -119 51 -119 63
0 7 15 21 32 32 75 47 158 111 175 135 8 11 18 20 24 20 9 0 93 84 161 162 58
66 117 149 135 191 29 64 36 44 30 -85z m-3837 36 c0 -8 4 -14 10 -14 5 0 19
-18 30 -40 11 -22 25 -40 30 -40 6 0 10 -5 10 -11 0 -12 9 -22 113 -126 131
-131 181 -174 225 -193 12 -5 22 -13 22 -18 0 -5 16 -16 35 -25 35 -17 50 -57
22 -57 -8 0 -28 -7 -45 -15 -17 -9 -67 -22 -112 -30 -79 -14 -84 -14 -111 5
-15 11 -50 48 -77 83 -106 133 -160 266 -169 416 -5 70 -3 92 5 87 7 -4 12
-14 12 -22z m750 -603 l135 -69 3 -40 3 -39 -62 -7 c-130 -13 -146 -6 -182 79
-20 49 -43 145 -34 145 1 0 63 -31 137 -69z m2423 47 c-21 -103 -49 -174 -79
-198 -13 -12 -110 -8 -172 7 -27 6 -41 49 -21 68 14 13 258 144 271 145 3 0 4
-10 1 -22z"/>
<path d="M2062 2619 c-28 -14 -51 -36 -66 -63 -28 -47 -45 -136 -27 -136 7 0
9 -5 6 -10 -11 -19 15 -76 50 -110 19 -19 35 -30 35 -24 0 5 4 3 9 -4 13 -22
84 -33 141 -22 49 9 116 51 103 64 -4 3 -1 6 6 6 7 0 21 21 33 47 38 86 3 202
-75 248 -58 33 -152 35 -215 4z"/>
<path d="M3775 2626 c-38 -17 -80 -62 -94 -99 -15 -39 -14 -121 3 -160 15 -37
61 -89 91 -105 42 -21 166 -19 189 3 8 8 18 15 22 15 16 0 64 66 74 100 25 88
-1 177 -66 226 -33 25 -47 29 -113 32 -49 1 -87 -3 -106 -12z"/>
</g>
</svg>
