<?xml version="1.0" standalone="no"?>
<!DOCTYPE svg PUBLIC "-//W3C//DTD SVG 20010904//EN"
 "http://www.w3.org/TR/2001/REC-SVG-20010904/DTD/svg10.dtd">
<svg version="1.0" xmlns="http://www.w3.org/2000/svg"
 width="512.000000pt" height="512.000000pt" viewBox="0 0 512.000000 512.000000"
 preserveAspectRatio="xMidYMid meet">
<metadata>
Created by potrace 1.11, written by Peter Selinger 2001-2013
</metadata>
<g transform="translate(0.000000,512.000000) scale(0.100000,-0.100000)"
fill="#000000" stroke="none">
<path d="M2038 5115 c-2 -1 -28 -5 -58 -8 -130 -12 -257 -61 -332 -127 -105
-92 -135 -274 -115 -685 7 -146 7 -150 -18 -200 -14 -30 -39 -60 -61 -75 -42
-28 -34 -27 -419 -34 -132 -2 -250 -6 -261 -9 -12 -3 -37 -8 -55 -11 -149 -24
-244 -121 -283 -287 -13 -59 -15 -169 -2 -239 2 -14 7 -45 10 -70 4 -25 9 -63
12 -85 10 -73 12 -90 20 -155 4 -36 8 -67 9 -70 1 -3 5 -36 9 -75 5 -38 10
-77 11 -86 2 -9 6 -40 10 -70 9 -73 17 -123 50 -314 28 -155 101 -405 159
-545 70 -166 134 -221 328 -284 206 -67 697 -176 898 -200 73 -8 124 -17 140
-22 8 -3 56 -8 106 -10 81 -3 96 -1 140 21 57 29 87 69 120 161 68 185 106
401 117 653 1 19 7 36 13 38 7 2 11 -24 12 -77 2 -158 19 -247 69 -347 38 -78
95 -138 162 -172 75 -39 351 -93 636 -125 211 -24 304 -103 356 -303 29 -112
34 -174 33 -383 0 -167 -3 -190 -23 -243 -34 -88 -99 -127 -232 -142 -100 -12
-432 -8 -481 6 -92 24 -126 72 -135 190 -5 56 -2 75 17 114 35 73 92 94 262
97 60 1 89 6 92 14 3 7 0 41 -5 76 -12 71 -7 130 15 202 10 34 12 54 5 62 -7
9 -60 11 -202 9 -232 -4 -298 -15 -397 -66 -106 -54 -185 -183 -206 -335 -3
-27 -8 -58 -10 -69 -7 -30 -6 -294 1 -340 49 -326 201 -448 600 -483 44 -4
208 -7 365 -6 233 0 300 3 370 18 281 59 414 222 570 697 32 96 88 323 106
429 3 14 11 59 19 100 7 41 19 109 26 150 6 41 13 82 14 91 2 9 6 40 10 70 3
30 10 81 15 114 5 33 12 88 15 123 4 35 8 72 10 82 27 140 27 940 0 1335 -2
28 -6 104 -10 170 -4 66 -8 140 -10 165 -12 161 -16 211 -20 260 -11 110 -24
234 -31 280 -2 19 -7 53 -9 74 -27 213 -145 373 -309 417 -41 11 -55 15 -98
24 -60 13 -75 16 -98 20 -14 3 -36 7 -50 10 -14 3 -36 7 -50 10 -14 3 -47 9
-75 14 -57 11 -93 16 -220 31 -49 5 -108 12 -130 15 -32 4 -508 16 -591 15
-16 0 -25 11 -39 48 -73 194 -236 302 -510 337 -51 7 -381 15 -387 10z m1759
-2146 c55 -27 96 -75 121 -142 21 -54 40 -197 28 -197 -4 0 -34 9 -67 20 -92
31 -231 49 -357 45 l-114 -4 6 37 c18 103 75 200 136 233 73 40 174 43 247 8z"/>
<path d="M965 4509 l-460 -458 70 24 c69 24 84 27 180 45 28 5 144 7 260 5
237 -6 282 -2 328 29 l32 22 1 289 c0 160 4 304 8 320 19 81 28 112 37 137 6
15 9 31 8 36 -2 5 -211 -197 -464 -449z"/>
</g>
</svg>
